<svg width="186" height="96" viewBox="0 0 186 96" fill="none" xmlns="http://www.w3.org/2000/svg">
<rect x="1" y="1" width="184" height="94" rx="7" fill="#1C1D1F" stroke="#6D7077" stroke-width="2"/>
<path d="M175.5 77.0796C175.5 77.3727 175.262 77.7614 174.598 78.1065C173.959 78.4388 173.041 78.6592 172 78.6592C170.959 78.6592 170.041 78.4388 169.402 78.1065C168.738 77.7614 168.5 77.3727 168.5 77.0796C168.5 76.7865 168.738 76.3978 169.402 76.0527C170.041 75.7204 170.959 75.5 172 75.5C173.041 75.5 173.959 75.7204 174.598 76.0527C175.262 76.3978 175.5 76.7865 175.5 77.0796Z" stroke="#6D7177"/>
<path fill-rule="evenodd" clip-rule="evenodd" d="M168 81.9319C168 82.9528 169.791 83.7804 172 83.7804C174.209 83.7804 176 82.9528 176 81.9319H174.982C174.94 81.9948 174.808 82.1466 174.409 82.3312C173.844 82.5923 172.993 82.7804 172 82.7804C171.007 82.7804 170.156 82.5923 169.591 82.3312C169.192 82.1466 169.06 81.9948 169.018 81.9319H168Z" fill="#6D7177"/>
<path fill-rule="evenodd" clip-rule="evenodd" d="M168 79.6213C168 80.6422 169.791 81.4698 172 81.4698C174.209 81.4698 176 80.6422 176 79.6213H174.982C174.94 79.6842 174.808 79.836 174.409 80.0207C173.844 80.2817 172.993 80.4698 172 80.4698C171.007 80.4698 170.156 80.2817 169.591 80.0207C169.192 79.836 169.06 79.6842 169.018 79.6213H168Z" fill="#6D7177"/>
<path fill-rule="evenodd" clip-rule="evenodd" d="M168.003 84.2427C168.001 84.2712 168 84.2999 168 84.3288C168 85.4773 169.791 86.4084 172 86.4084C174.209 86.4084 176 85.4773 176 84.3288C176 84.2999 175.999 84.2712 175.997 84.2427H174.97C174.997 84.2938 175 84.3248 175 84.3288C175 84.3407 174.971 84.5982 174.367 84.912C173.813 85.2003 172.977 85.4084 172 85.4084C171.023 85.4084 170.187 85.2003 169.633 84.912C169.029 84.5982 169 84.3407 169 84.3288C169 84.3248 169.003 84.2938 169.03 84.2427H168.003Z" fill="#6D7177"/>
<path d="M175.8 84.4736V77.1689" stroke="#6D7177"/>
<path d="M168.2 84.4736V77.1689" stroke="#6D7177"/>
<path d="M154.961 75.0195C154.961 75.4206 155.062 75.7057 155.266 75.875C155.469 76.0469 155.691 76.1471 155.934 76.1758V76.6328C155.47 76.5859 155.086 76.4492 154.781 76.2227C154.479 75.9987 154.328 75.6289 154.328 75.1133V74.3086C154.328 74.0247 154.284 73.8008 154.195 73.6367C154.034 73.3372 153.724 73.1628 153.266 73.1133V72.668C153.727 72.6133 154.036 72.4427 154.195 72.1562C154.284 71.9974 154.328 71.7695 154.328 71.4727V70.8359C154.328 70.3464 154.434 69.9583 154.645 69.6719C154.858 69.3854 155.288 69.2148 155.934 69.1602V69.6055C155.514 69.6419 155.23 69.8268 155.082 70.1602C155.001 70.3424 154.961 70.5951 154.961 70.918V71.3555C154.961 71.7461 154.913 72.0456 154.816 72.2539C154.642 72.6315 154.303 72.8438 153.801 72.8906C154.301 72.9349 154.639 73.1536 154.816 73.5469C154.913 73.763 154.961 74.0573 154.961 74.4297V75.0195ZM159.66 72.6484L158.789 70.1133L157.863 72.6484H159.66ZM158.383 69.2617H159.262L161.344 75H160.492L159.91 73.2812H157.641L157.02 75H156.223L158.383 69.2617ZM162.496 73.8867C162.496 74.0898 162.57 74.25 162.719 74.3672C162.867 74.4844 163.043 74.543 163.246 74.543C163.493 74.543 163.733 74.4857 163.965 74.3711C164.355 74.181 164.551 73.8698 164.551 73.4375V72.8711C164.465 72.9258 164.354 72.9714 164.219 73.0078C164.083 73.0443 163.951 73.0703 163.82 73.0859L163.395 73.1406C163.139 73.1745 162.948 73.2279 162.82 73.3008C162.604 73.4232 162.496 73.6185 162.496 73.8867ZM164.199 72.4648C164.361 72.444 164.469 72.3763 164.523 72.2617C164.555 72.1992 164.57 72.1094 164.57 71.9922C164.57 71.7526 164.484 71.5794 164.312 71.4727C164.143 71.3633 163.9 71.3086 163.582 71.3086C163.215 71.3086 162.954 71.4076 162.801 71.6055C162.715 71.7148 162.659 71.8776 162.633 72.0938H161.977C161.99 71.5781 162.156 71.2201 162.477 71.0195C162.799 70.8164 163.173 70.7148 163.598 70.7148C164.09 70.7148 164.49 70.8086 164.797 70.9961C165.102 71.1836 165.254 71.4753 165.254 71.8711V74.2812C165.254 74.3542 165.268 74.4128 165.297 74.457C165.328 74.5013 165.392 74.5234 165.488 74.5234C165.52 74.5234 165.555 74.5221 165.594 74.5195C165.633 74.5143 165.674 74.5078 165.719 74.5V75.0195C165.609 75.0508 165.526 75.0703 165.469 75.0781C165.411 75.0859 165.333 75.0898 165.234 75.0898C164.992 75.0898 164.816 75.0039 164.707 74.832C164.65 74.7409 164.609 74.612 164.586 74.4453C164.443 74.6328 164.237 74.7956 163.969 74.9336C163.701 75.0716 163.405 75.1406 163.082 75.1406C162.694 75.1406 162.376 75.0234 162.129 74.7891C161.884 74.5521 161.762 74.2565 161.762 73.9023C161.762 73.5143 161.883 73.2135 162.125 73C162.367 72.7865 162.685 72.6549 163.078 72.6055L164.199 72.4648ZM168.188 72.8906C167.688 72.8438 167.35 72.6328 167.176 72.2578C167.079 72.0495 167.031 71.7487 167.031 71.3555V70.918C167.031 70.5742 166.991 70.3138 166.91 70.1367C166.764 69.819 166.48 69.6419 166.059 69.6055V69.1602C166.73 69.2148 167.186 69.4232 167.426 69.7852C167.582 70.0169 167.66 70.3672 167.66 70.8359V71.4727C167.66 71.7643 167.704 71.9909 167.793 72.1523C167.954 72.4466 168.266 72.6185 168.727 72.668V73.1133C168.268 73.1602 167.957 73.3359 167.793 73.6406C167.704 73.8073 167.66 74.0299 167.66 74.3086V75.1133C167.66 75.6393 167.508 76.0117 167.203 76.2305C166.901 76.4492 166.52 76.5833 166.059 76.6328V76.1758C166.337 76.1393 166.569 76.0273 166.754 75.8398C166.939 75.6549 167.031 75.3815 167.031 75.0195V74.4297C167.031 74.0547 167.079 73.7604 167.176 73.5469C167.353 73.1536 167.69 72.9349 168.188 72.8906Z" fill="#6D7177"/>
</svg>
