<svg width="186" height="96" viewBox="0 0 186 96" fill="none" xmlns="http://www.w3.org/2000/svg">
<rect x="1" y="1" width="184" height="94" rx="7" fill="#1C1D1F" stroke="#6D7077" stroke-width="2"/>
<path d="M175.5 78.0796C175.5 78.3727 175.262 78.7614 174.598 79.1065C173.959 79.4388 173.041 79.6592 172 79.6592C170.959 79.6592 170.041 79.4388 169.402 79.1065C168.738 78.7614 168.5 78.3727 168.5 78.0796C168.5 77.7865 168.738 77.3978 169.402 77.0527C170.041 76.7204 170.959 76.5 172 76.5C173.041 76.5 173.959 76.7204 174.598 77.0527C175.262 77.3978 175.5 77.7865 175.5 78.0796Z" stroke="#6D7177"/>
<path fill-rule="evenodd" clip-rule="evenodd" d="M168 82.9319C168 83.9528 169.791 84.7804 172 84.7804C174.209 84.7804 176 83.9528 176 82.9319H174.982C174.94 82.9948 174.808 83.1466 174.409 83.3312C173.844 83.5923 172.993 83.7804 172 83.7804C171.007 83.7804 170.156 83.5923 169.591 83.3312C169.192 83.1466 169.06 82.9948 169.018 82.9319H168Z" fill="#6D7177"/>
<path fill-rule="evenodd" clip-rule="evenodd" d="M168 80.6213C168 81.6422 169.791 82.4698 172 82.4698C174.209 82.4698 176 81.6422 176 80.6213H174.982C174.94 80.6842 174.808 80.836 174.409 81.0207C173.844 81.2817 172.993 81.4698 172 81.4698C171.007 81.4698 170.156 81.2817 169.591 81.0207C169.192 80.836 169.06 80.6842 169.018 80.6213H168Z" fill="#6D7177"/>
<path fill-rule="evenodd" clip-rule="evenodd" d="M168.003 85.2427C168.001 85.2712 168 85.2999 168 85.3288C168 86.4773 169.791 87.4084 172 87.4084C174.209 87.4084 176 86.4773 176 85.3288C176 85.2999 175.999 85.2712 175.997 85.2427H174.97C174.997 85.2938 175 85.3248 175 85.3288C175 85.3407 174.971 85.5982 174.367 85.912C173.813 86.2003 172.977 86.4084 172 86.4084C171.023 86.4084 170.187 86.2003 169.633 85.912C169.029 85.5982 169 85.3407 169 85.3288C169 85.3248 169.003 85.2938 169.03 85.2427H168.003Z" fill="#6D7177"/>
<path d="M175.8 85.4736V78.1689" stroke="#6D7177"/>
<path d="M168.2 85.4736V78.1689" stroke="#6D7177"/>
<path d="M162 70.9997L160.268 73.9997L163.732 73.9997L162 70.9997Z" fill="#6D7177"/>
<path d="M157 81.0002L160.448 80.666L158.434 77.8471L157 81.0002ZM161.826 77.1847L159.023 79.1868L159.371 79.675L162.174 77.6729L161.826 77.1847Z" fill="#6D7177"/>
<path d="M162 77.4287V72.4287" stroke="#6D7177" stroke-width="1.2"/>
<path d="M162 77.4287L158.429 79.9287" stroke="#6D7177" stroke-width="1.2"/>
<path d="M167 81.0002L163.552 80.666L165.566 77.8471L167 81.0002ZM162.174 77.1847L164.977 79.1868L164.629 79.675L161.826 77.6729L162.174 77.1847Z" fill="#6D7177"/>
<path d="M162 77.4287L165.571 79.9287" stroke="#6D7177" stroke-width="1.2"/>
</svg>
