<svg width="186" height="96" viewBox="0 0 186 96" fill="none" xmlns="http://www.w3.org/2000/svg">
<rect x="1" y="1" width="184" height="94" rx="7" fill="#1C1D1F" stroke="#6D7077" stroke-width="2"/>
<path d="M169 72L166.691 76L171.309 76L169 72Z" fill="#6D7177"/>
<path d="M162 86L166.597 85.5543L163.913 81.7958L162 86ZM168.768 80.6745L164.697 83.582L165.162 84.233L169.232 81.3255L168.768 80.6745Z" fill="#6D7177"/>
<path d="M169 81V74" stroke="#6D7177" stroke-width="1.5"/>
<path d="M169 81L164 84.5" stroke="#6D7177" stroke-width="1.5"/>
<path d="M176 86L171.403 85.5543L174.087 81.7958L176 86ZM169.232 80.6745L173.303 83.582L172.838 84.233L168.768 81.3255L169.232 80.6745Z" fill="#6D7177"/>
<path d="M169 81L174 84.5" stroke="#6D7177" stroke-width="1.5"/>
</svg>
