<svg width="186" height="96" viewBox="0 0 186 96" fill="none" xmlns="http://www.w3.org/2000/svg">
<rect x="1" y="1" width="184" height="94" rx="7" fill="#1C1D1F" stroke="#6D7077" stroke-width="2"/>
<path fill-rule="evenodd" clip-rule="evenodd" d="M173.368 81.1254C173.274 80.9848 173.164 80.8514 173.038 80.7276C172.031 79.7352 170.399 79.7352 169.391 80.7276L166.824 83.2582C165.816 84.2507 165.816 85.8598 166.824 86.8523C167.831 87.8448 169.463 87.8448 170.471 86.8523L172.144 85.2028L171.432 84.5009L169.758 86.1504C169.145 86.7552 168.15 86.7552 167.536 86.1504C166.922 85.5456 166.922 84.565 167.536 83.9602L170.104 81.4296C170.717 80.8247 171.712 80.8247 172.326 81.4296C172.455 81.5562 172.556 81.6993 172.631 81.852L173.368 81.1254Z" fill="#6D7177"/>
<path fill-rule="evenodd" clip-rule="evenodd" d="M170.494 82.524C170.588 82.6646 170.698 82.798 170.824 82.9218C171.831 83.9142 173.463 83.9142 174.471 82.9218L177.038 80.3912C178.046 79.3987 178.046 77.7896 177.038 76.7971C176.031 75.8047 174.399 75.8047 173.391 76.7971L171.718 78.4466L172.43 79.1485L174.104 77.499C174.717 76.8942 175.712 76.8942 176.326 77.499C176.94 78.1039 176.94 79.0844 176.326 79.6893L173.758 82.2199C173.145 82.8247 172.149 82.8247 171.536 82.2199C171.407 82.0932 171.306 81.9501 171.231 81.7974L170.494 82.524Z" fill="#6D7177"/>
</svg>
