<svg width="223" height="188" viewBox="0 0 223 188" fill="none" xmlns="http://www.w3.org/2000/svg">
<circle cx="112" cy="92" r="70" fill="#1C1D1F"/>
<path d="M131.621 62.5L137.428 68.3066L137.489 68.8223L142.489 110.822L142.555 111.372L131.803 127.5H92.1973L81.4453 111.372L81.5107 110.822L86.5107 68.8223L86.5723 68.3066L92.3789 62.5H131.621Z" fill="#FFA73D" stroke="#1C1D1F" stroke-width="3"/>
<path d="M113 105.001L113 108.63C112.999 110.151 112.383 111.617 111.28 112.72L110.408 113.592C109.494 114.506 108.299 115.116 107.001 115.333L106.206 115.465C104.201 115.799 102.162 115.161 100.762 113.762L99.0002 112" stroke="#1C1D1F" stroke-width="3"/>
<path d="M113 104L113 108.657C113 110.162 113.603 111.604 114.685 112.686L115.623 113.624C116.518 114.518 117.688 115.115 118.966 115.328L119.772 115.462C121.788 115.799 123.856 115.145 125.28 113.721L127 112" stroke="#1C1D1F" stroke-width="3"/>
<path d="M125.381 80L117.381 86L125.5 91.5" stroke="#1C1D1F" stroke-width="3"/>
<path d="M99.3813 80L107.381 86L99.3813 92" stroke="#1C1D1F" stroke-width="3"/>
<path d="M151.584 60.7565L155.093 91.5572L141.183 93.142L137.674 62.3413L151.584 60.7565Z" fill="#FFA73D" stroke="#1C1D1F" stroke-width="4"/>
<path d="M86.0931 62.3405L82.5838 93.1413L68.6738 91.5564L72.1831 60.7557L86.0931 62.3405Z" fill="#FFA73D" stroke="#1C1D1F" stroke-width="4"/>
<rect x="104" y="97" width="17" height="8" fill="#1C1D1F"/>
<rect x="110" y="99" width="6" height="1" fill="white"/>
</svg>
