<svg width="14" height="14" viewBox="0 0 14 14" fill="none" xmlns="http://www.w3.org/2000/svg">
<g id="openai-white-logomark 28" clip-path="url(#clip0_3316_1519)">
<g id="Clip path group">
<mask id="mask0_3316_1519" style="mask-type:luminance" maskUnits="userSpaceOnUse" x="0" y="0" width="14" height="14">
<g id="clip0_10145_290560">
<path id="Vector" d="M14 0H0V14H14V0Z" fill="white"/>
</g>
</mask>
<g mask="url(#mask0_3316_1519)">
<g id="Group">
<path id="Vector_2" d="M12.9965 5.73C13.3141 4.77669 13.2047 3.73238 12.6968 2.86525C11.9329 1.53525 10.3973 0.851002 8.89752 1.173C8.23033 0.421377 7.27177 -0.00606008 6.26683 6.49355e-05C4.73383 -0.00343506 3.37365 0.983564 2.90202 2.44219C1.91721 2.64388 1.06715 3.26031 0.569708 4.134C-0.199855 5.4605 -0.024417 7.13263 1.00371 8.27013C0.686083 9.22344 0.795458 10.2678 1.3034 11.1349C2.06727 12.4649 3.6029 13.1491 5.10265 12.8271C5.7694 13.5788 6.7284 14.0062 7.73333 13.9996C9.26721 14.0036 10.6278 13.0157 11.0995 11.5558C12.0843 11.3541 12.9343 10.7376 13.4318 9.86394C14.2005 8.53744 14.0246 6.86663 12.9969 5.72913L12.9965 5.73ZM7.73421 13.0848C7.1204 13.0857 6.52583 12.8709 6.05465 12.4776C6.07608 12.4662 6.11327 12.4456 6.13733 12.4308L8.92508 10.8208C9.06771 10.7398 9.15521 10.588 9.15433 10.4239V6.49388L10.3325 7.17419C10.3452 7.18031 10.3535 7.19256 10.3553 7.20656V10.4611C10.3535 11.9084 9.18146 13.0818 7.73421 13.0848ZM2.09746 10.6773C1.7899 10.1461 1.67921 9.52356 1.78465 8.91938C1.80521 8.93163 1.84152 8.95394 1.86733 8.96881L4.65508 10.5788C4.7964 10.6615 4.9714 10.6615 5.11315 10.5788L8.51646 8.61356V9.97419C8.51733 9.98819 8.51077 10.0018 8.49983 10.0105L5.6819 11.6376C4.42671 12.3603 2.82371 11.9307 2.0979 10.6773H2.09746ZM1.36377 4.59206C1.67002 4.06006 2.15346 3.65319 2.72921 3.44188C2.72921 3.46594 2.7279 3.50838 2.7279 3.53813V6.75856C2.72702 6.92219 2.81452 7.074 2.95671 7.15494L6.36002 9.11975L5.18183 9.80006C5.17002 9.80794 5.15515 9.80925 5.14202 9.80356L2.32365 8.17519C1.07108 7.44981 0.641458 5.84725 1.36333 4.5925L1.36377 4.59206ZM11.0439 6.84475L7.64058 4.8795L8.81877 4.19963C8.83058 4.19175 8.84546 4.19044 8.85858 4.19613L11.677 5.82319C12.9317 6.54813 13.3618 8.15331 12.6368 9.40806C12.3301 9.93919 11.8471 10.3461 11.2718 10.5578V7.24113C11.2731 7.0775 11.1861 6.92613 11.0443 6.84475H11.0439ZM12.2164 5.07988C12.1958 5.06719 12.1595 5.04531 12.1337 5.03044L9.34596 3.42044C9.20465 3.33775 9.02964 3.33775 8.8879 3.42044L5.48458 5.38569V4.02506C5.48371 4.01106 5.49027 3.9975 5.50121 3.98875L8.31915 2.363C9.57433 1.63894 11.1791 2.06988 11.9027 3.3255C12.2085 3.85575 12.3192 4.47656 12.2155 5.07988H12.2164ZM4.84408 7.50494L3.66546 6.82463C3.65277 6.8185 3.64446 6.80625 3.64271 6.79225V3.53769C3.64358 2.08869 4.81915 0.914439 6.26815 0.915314C6.88108 0.915314 7.47433 1.13056 7.94552 1.52256C7.92408 1.53394 7.88733 1.5545 7.86283 1.56938L5.07508 3.17938C4.93246 3.26031 4.84496 3.41169 4.84583 3.57575L4.84408 7.50406V7.50494ZM5.48415 6.12506L7.00008 5.24963L8.51602 6.12463V7.87506L7.00008 8.75006L5.48415 7.87506V6.12506Z" fill="#CDCDCD"/>
</g>
</g>
</g>
</g>
<defs>
<clipPath id="clip0_3316_1519">
<rect width="14" height="14" fill="white"/>
</clipPath>
</defs>
</svg>
