<svg width="128" height="128" viewBox="0 0 128 128" fill="none" xmlns="http://www.w3.org/2000/svg">
<rect width="128" height="128" rx="32" fill="#1C1D1F"/>
<path d="M82.7344 34.5305L88.541 40.3372L88.6025 40.8528L93.6025 82.8528L93.668 83.4026L82.916 99.5305H43.3105L32.5586 83.4026L32.624 82.8528L37.624 40.8528L37.6855 40.3372L43.4922 34.5305H82.7344Z" fill="#FFA73D" stroke="#1C1D1F" stroke-width="3"/>
<path d="M64.1126 77.0313L64.1123 80.6603C64.1122 82.1813 63.4955 83.6478 62.3924 84.7508L61.5204 85.6226C60.6063 86.5366 59.4119 87.1469 58.1137 87.3632L57.3184 87.4958C55.3137 87.8299 53.2747 87.1918 51.875 85.7921L50.113 84.0302" stroke="#1C1D1F" stroke-width="3"/>
<path d="M64.1113 76.031L64.1113 80.6874C64.1113 82.192 64.7147 83.6344 65.7968 84.7165L66.7347 85.6544C67.6293 86.549 68.7998 87.1458 70.0774 87.3587L70.8829 87.4929C72.8997 87.8291 74.9668 87.1755 76.3909 85.7515L78.1113 84.031" stroke="#1C1D1F" stroke-width="3"/>
<path d="M76.4941 52.0305L68.4941 58.0305L76.6128 63.5305" stroke="#1C1D1F" stroke-width="3"/>
<path d="M50.4941 52.0305L58.4941 58.0305L50.4941 64.0305" stroke="#1C1D1F" stroke-width="3"/>
<path d="M102.696 32.7872L106.206 63.588L92.2957 65.1728L88.7864 34.3721L102.696 32.7872Z" fill="#FFA73D" stroke="#1C1D1F" stroke-width="4"/>
<path d="M37.2059 34.3713L33.6966 65.172L19.7866 63.5872L23.2959 32.7864L37.2059 34.3713Z" fill="#FFA73D" stroke="#1C1D1F" stroke-width="4"/>
<rect x="55.1133" y="69.0305" width="17" height="8" fill="#1C1D1F"/>
<rect x="61.1133" y="71.0305" width="6" height="1" fill="white"/>
</svg>
